<svg width="9" height="9" viewBox="0 0 9 9" fill="none" xmlns="http://www.w3.org/2000/svg">
<path d="M8.85358 0.5C8.85358 0.223858 8.62972 1.43429e-07 8.35358 1.69881e-08L3.85358 4.17383e-07C3.57743 2.48796e-07 3.35358 0.223858 3.35358 0.5C3.35358 0.776143 3.57743 1 3.85358 1L7.85358 1L7.85358 5C7.85358 5.27614 8.07743 5.5 8.35358 5.5C8.62972 5.5 8.85358 5.27614 8.85358 5L8.85358 0.5ZM0.353577 8.5L0.70713 8.85355L8.70713 0.853554L8.35358 0.5L8.00002 0.146447L2.32756e-05 8.14645L0.353577 8.5Z" fill="#343434"/>
</svg>
