<svg width="182" height="45" viewBox="0 0 182 45" fill="none" xmlns="http://www.w3.org/2000/svg">
<path d="M33.416 11.92V34H31.176V16.368L23.304 34H21.672L13.8 16.432V34H11.56V11.92H13.928L22.472 31.056L31.016 11.92H33.416Z" fill="#343434"/>
<path d="M45.9215 34.224C44.4495 34.224 43.1482 33.968 42.0175 33.456C40.9082 32.944 40.0335 32.2293 39.3935 31.312C38.7535 30.3947 38.4122 29.3707 38.3695 28.24H40.7375C40.8442 29.328 41.3242 30.288 42.1775 31.12C43.0308 31.9307 44.2788 32.336 45.9215 32.336C47.4362 32.336 48.6308 31.952 49.5055 31.184C50.4015 30.3947 50.8495 29.4027 50.8495 28.208C50.8495 27.248 50.6042 26.48 50.1135 25.904C49.6228 25.3067 49.0148 24.8693 48.2895 24.592C47.5642 24.2933 46.5615 23.9733 45.2815 23.632C43.7882 23.2267 42.6042 22.832 41.7295 22.448C40.8548 22.064 40.1082 21.4667 39.4895 20.656C38.8708 19.8453 38.5615 18.7467 38.5615 17.36C38.5615 16.208 38.8602 15.184 39.4575 14.288C40.0548 13.3707 40.8975 12.656 41.9855 12.144C43.0735 11.632 44.3215 11.376 45.7295 11.376C47.7988 11.376 49.4628 11.888 50.7215 12.912C52.0015 13.9147 52.7375 15.216 52.9295 16.816H50.4975C50.3482 15.8987 49.8468 15.088 48.9935 14.384C48.1402 13.6587 46.9882 13.296 45.5375 13.296C44.1935 13.296 43.0735 13.6587 42.1775 14.384C41.2815 15.088 40.8335 16.0587 40.8335 17.296C40.8335 18.2347 41.0788 18.992 41.5695 19.568C42.0602 20.144 42.6682 20.5813 43.3935 20.88C44.1402 21.1787 45.1428 21.4987 46.4015 21.84C47.8522 22.2453 49.0255 22.6507 49.9215 23.056C50.8175 23.44 51.5748 24.0373 52.1935 24.848C52.8122 25.6587 53.1215 26.7467 53.1215 28.112C53.1215 29.1573 52.8442 30.1493 52.2895 31.088C51.7348 32.0267 50.9135 32.784 49.8255 33.36C48.7375 33.936 47.4362 34.224 45.9215 34.224Z" fill="#81917D"/>
<rect x="0.5" y="4.5" width="62" height="36" stroke="#D9D9D9"/>
<path d="M81.0526 25.0935H81.7283L86.7961 10.1704V23.0893C86.7961 24.5203 86.1012 24.7849 85.4025 25.0935H90.3013C89.6026 24.7849 88.9077 24.5203 88.9077 23.0893V11.6696C88.9077 10.2346 89.6026 9.97002 90.3013 9.66138H86.5427L82.1929 22.4721L77.0829 9.66138H74C74.6949 9.97002 75.3936 10.2346 75.3936 11.6696V23.0893C75.3936 24.5203 74.6949 24.7849 74 25.0935H77.2096C76.5108 24.7849 75.8159 24.5203 75.8159 23.0893V11.8018L81.0526 25.0935ZM107.785 25.0935H109.54C108.841 24.7849 107.931 24.5644 107.447 23.2216L102.337 9.66138H99.9953C100.901 10.1023 101.554 10.431 100.944 12.3309L97.4614 23.1976C97.0161 24.5404 96.1523 24.7849 95.4535 25.0935H98.6631C97.9682 24.7849 97.4384 24.5404 97.8837 23.1976L98.9818 19.8025H103.942L105.251 23.2857C105.716 24.5404 106.518 25.0935 107.785 25.0935ZM99.1085 19.3616L101.262 12.6837L103.773 19.3616H99.1085ZM122.078 25.0935H127.188C126.494 24.7849 125.499 24.6085 124.743 23.418L121.637 18.5679C123.641 17.5779 125.269 16.2311 125.269 13.8942C125.269 11.6014 123.18 9.66138 119.84 9.66138H114.688C115.387 9.97002 116.085 10.2346 116.085 11.6696V23.0893C116.085 24.5203 115.387 24.7849 114.688 25.0935H119.587C118.892 24.7849 118.197 24.5203 118.197 23.0893V19.9789L119.779 19.3856L122.397 23.4381C123.157 24.6085 122.777 24.7849 122.078 25.0935ZM118.197 19.2974V10.1023H119.84C121.806 10.1023 123.05 11.5573 123.05 13.8942C123.05 17.3133 120.75 18.3234 118.197 19.2974ZM132.345 25.0935H137.243C136.545 24.7849 135.85 24.5203 135.85 23.0893V11.6696C135.85 10.2346 136.545 9.97002 137.243 9.66138H132.345C133.039 9.97002 133.738 10.2346 133.738 11.6696V23.0893C133.738 24.5203 133.039 24.7849 132.345 25.0935ZM154.727 25.0935H156.478C155.783 24.7849 154.873 24.5644 154.389 23.2216L149.279 9.66138H146.934C147.843 10.1023 148.496 10.431 147.886 12.3309L144.4 23.1976C143.958 24.5404 143.09 24.7849 142.396 25.0935H145.605C144.906 24.7849 144.38 24.5404 144.822 23.1976L145.92 19.8025H150.884L152.193 23.2857C152.658 24.5404 153.46 25.0935 154.727 25.0935ZM146.047 19.3616L148.2 12.6837L150.715 19.3616H146.047ZM161.841 13.6497H162.475L162.686 9H161.63L161.841 13.6497ZM172.61 24.853C171.385 24.853 170.161 24.4081 169.147 23.5944C168.448 22.909 168.829 22.3157 169.232 21.6744L167.838 22.933C169.086 24.4081 170.856 25.2899 172.61 25.2899C175.839 25.2899 178.204 23.7908 178.204 20.7725C178.204 16.0747 170.391 16.4756 170.391 12.6596C170.391 11.1405 171.385 9.88184 173.117 9.88184C173.919 9.88184 174.68 10.0141 175.355 10.2787C176.2 10.7637 175.946 11.401 175.693 12.1065L176.58 10.8959L176.791 10.5873C175.755 9.85779 174.511 9.44092 173.117 9.44092C170.011 9.44092 168.176 11.1164 168.176 13.3651C168.176 18.1711 175.989 17.8865 175.989 21.6103C175.989 23.3058 174.764 24.853 172.61 24.853Z" fill="#707070"/>
<path d="M76.94 30.03C77.7 30.03 78.3567 30.1733 78.91 30.46C79.47 30.74 79.8967 31.1433 80.19 31.67C80.49 32.1967 80.64 32.8167 80.64 33.53C80.64 34.2433 80.49 34.8633 80.19 35.39C79.8967 35.91 79.47 36.31 78.91 36.59C78.3567 36.8633 77.7 37 76.94 37H74.77V30.03H76.94ZM76.94 36.25C77.84 36.25 78.5267 36.0133 79 35.54C79.4733 35.06 79.71 34.39 79.71 33.53C79.71 32.6633 79.47 31.9867 78.99 31.5C78.5167 31.0133 77.8333 30.77 76.94 30.77H75.68V36.25H76.94ZM85.5503 30.77V33.1H88.0903V33.85H85.5503V36.25H88.3903V37H84.6403V30.02H88.3903V30.77H85.5503ZM94.7773 37.07C94.3173 37.07 93.9039 36.99 93.5373 36.83C93.1773 36.6633 92.8939 36.4367 92.6873 36.15C92.4806 35.8567 92.3739 35.52 92.3673 35.14H93.3373C93.3706 35.4667 93.5039 35.7433 93.7373 35.97C93.9773 36.19 94.3239 36.3 94.7773 36.3C95.2106 36.3 95.5506 36.1933 95.7973 35.98C96.0506 35.76 96.1773 35.48 96.1773 35.14C96.1773 34.8733 96.1039 34.6567 95.9573 34.49C95.8106 34.3233 95.6273 34.1967 95.4073 34.11C95.1873 34.0233 94.8906 33.93 94.5173 33.83C94.0573 33.71 93.6873 33.59 93.4073 33.47C93.1339 33.35 92.8973 33.1633 92.6973 32.91C92.5039 32.65 92.4073 32.3033 92.4073 31.87C92.4073 31.49 92.5039 31.1533 92.6973 30.86C92.8906 30.5667 93.1606 30.34 93.5073 30.18C93.8606 30.02 94.2639 29.94 94.7173 29.94C95.3706 29.94 95.9039 30.1033 96.3173 30.43C96.7373 30.7567 96.9739 31.19 97.0273 31.73H96.0273C95.9939 31.4633 95.8539 31.23 95.6073 31.03C95.3606 30.8233 95.0339 30.72 94.6273 30.72C94.2473 30.72 93.9373 30.82 93.6973 31.02C93.4573 31.2133 93.3373 31.4867 93.3373 31.84C93.3373 32.0933 93.4073 32.3 93.5473 32.46C93.6939 32.62 93.8706 32.7433 94.0773 32.83C94.2906 32.91 94.5873 33.0033 94.9673 33.11C95.4273 33.2367 95.7973 33.3633 96.0773 33.49C96.3573 33.61 96.5973 33.8 96.7973 34.06C96.9973 34.3133 97.0973 34.66 97.0973 35.1C97.0973 35.44 97.0073 35.76 96.8273 36.06C96.6473 36.36 96.3806 36.6033 96.0273 36.79C95.6739 36.9767 95.2573 37.07 94.7773 37.07ZM102.146 30.03V37H101.236V30.03H102.146ZM111.777 32.05C111.584 31.6433 111.304 31.33 110.937 31.11C110.571 30.8833 110.144 30.77 109.657 30.77C109.171 30.77 108.731 30.8833 108.337 31.11C107.951 31.33 107.644 31.65 107.417 32.07C107.197 32.4833 107.087 32.9633 107.087 33.51C107.087 34.0567 107.197 34.5367 107.417 34.95C107.644 35.3633 107.951 35.6833 108.337 35.91C108.731 36.13 109.171 36.24 109.657 36.24C110.337 36.24 110.897 36.0367 111.337 35.63C111.777 35.2233 112.034 34.6733 112.107 33.98H109.327V33.24H113.077V33.94C113.024 34.5133 112.844 35.04 112.537 35.52C112.231 35.9933 111.827 36.37 111.327 36.65C110.827 36.9233 110.271 37.06 109.657 37.06C109.011 37.06 108.421 36.91 107.887 36.61C107.354 36.3033 106.931 35.88 106.617 35.34C106.311 34.8 106.157 34.19 106.157 33.51C106.157 32.83 106.311 32.22 106.617 31.68C106.931 31.1333 107.354 30.71 107.887 30.41C108.421 30.1033 109.011 29.95 109.657 29.95C110.397 29.95 111.051 30.1333 111.617 30.5C112.191 30.8667 112.607 31.3833 112.867 32.05H111.777ZM122.561 37H121.651L117.991 31.45V37H117.081V30.02H117.991L121.651 35.56V30.02H122.561V37ZM134.588 37.07C134.128 37.07 133.714 36.99 133.348 36.83C132.988 36.6633 132.704 36.4367 132.498 36.15C132.291 35.8567 132.184 35.52 132.178 35.14H133.148C133.181 35.4667 133.314 35.7433 133.548 35.97C133.788 36.19 134.134 36.3 134.588 36.3C135.021 36.3 135.361 36.1933 135.608 35.98C135.861 35.76 135.988 35.48 135.988 35.14C135.988 34.8733 135.914 34.6567 135.768 34.49C135.621 34.3233 135.438 34.1967 135.218 34.11C134.998 34.0233 134.701 33.93 134.328 33.83C133.868 33.71 133.498 33.59 133.218 33.47C132.944 33.35 132.708 33.1633 132.508 32.91C132.314 32.65 132.218 32.3033 132.218 31.87C132.218 31.49 132.314 31.1533 132.508 30.86C132.701 30.5667 132.971 30.34 133.318 30.18C133.671 30.02 134.074 29.94 134.528 29.94C135.181 29.94 135.714 30.1033 136.128 30.43C136.548 30.7567 136.784 31.19 136.838 31.73H135.838C135.804 31.4633 135.664 31.23 135.418 31.03C135.171 30.8233 134.844 30.72 134.438 30.72C134.058 30.72 133.748 30.82 133.508 31.02C133.268 31.2133 133.148 31.4867 133.148 31.84C133.148 32.0933 133.218 32.3 133.358 32.46C133.504 32.62 133.681 32.7433 133.888 32.83C134.101 32.91 134.398 33.0033 134.778 33.11C135.238 33.2367 135.608 33.3633 135.888 33.49C136.168 33.61 136.408 33.8 136.608 34.06C136.808 34.3133 136.908 34.66 136.908 35.1C136.908 35.44 136.818 35.76 136.638 36.06C136.458 36.36 136.191 36.6033 135.838 36.79C135.484 36.9767 135.068 37.07 134.588 37.07ZM145.337 30.03V30.77H143.437V37H142.527V30.77H140.617V30.03H145.337ZM150.147 30.03V34.44C150.147 35.06 150.297 35.52 150.597 35.82C150.904 36.12 151.327 36.27 151.867 36.27C152.4 36.27 152.817 36.12 153.117 35.82C153.424 35.52 153.577 35.06 153.577 34.44V30.03H154.487V34.43C154.487 35.01 154.37 35.5 154.137 35.9C153.904 36.2933 153.587 36.5867 153.187 36.78C152.794 36.9733 152.35 37.07 151.857 37.07C151.364 37.07 150.917 36.9733 150.517 36.78C150.124 36.5867 149.81 36.2933 149.577 35.9C149.35 35.5 149.237 35.01 149.237 34.43V30.03H150.147ZM160.975 30.03C161.735 30.03 162.392 30.1733 162.945 30.46C163.505 30.74 163.932 31.1433 164.225 31.67C164.525 32.1967 164.675 32.8167 164.675 33.53C164.675 34.2433 164.525 34.8633 164.225 35.39C163.932 35.91 163.505 36.31 162.945 36.59C162.392 36.8633 161.735 37 160.975 37H158.805V30.03H160.975ZM160.975 36.25C161.875 36.25 162.562 36.0133 163.035 35.54C163.508 35.06 163.745 34.39 163.745 33.53C163.745 32.6633 163.505 31.9867 163.025 31.5C162.552 31.0133 161.868 30.77 160.975 30.77H159.715V36.25H160.975ZM169.585 30.03V37H168.675V30.03H169.585ZM177.096 37.07C176.45 37.07 175.86 36.92 175.326 36.62C174.793 36.3133 174.37 35.89 174.056 35.35C173.75 34.8033 173.596 34.19 173.596 33.51C173.596 32.83 173.75 32.22 174.056 31.68C174.37 31.1333 174.793 30.71 175.326 30.41C175.86 30.1033 176.45 29.95 177.096 29.95C177.75 29.95 178.343 30.1033 178.876 30.41C179.41 30.71 179.83 31.13 180.136 31.67C180.443 32.21 180.596 32.8233 180.596 33.51C180.596 34.1967 180.443 34.81 180.136 35.35C179.83 35.89 179.41 36.3133 178.876 36.62C178.343 36.92 177.75 37.07 177.096 37.07ZM177.096 36.28C177.583 36.28 178.02 36.1667 178.406 35.94C178.8 35.7133 179.106 35.39 179.326 34.97C179.553 34.55 179.666 34.0633 179.666 33.51C179.666 32.95 179.553 32.4633 179.326 32.05C179.106 31.63 178.803 31.3067 178.416 31.08C178.03 30.8533 177.59 30.74 177.096 30.74C176.603 30.74 176.163 30.8533 175.776 31.08C175.39 31.3067 175.083 31.63 174.856 32.05C174.636 32.4633 174.526 32.95 174.526 33.51C174.526 34.0633 174.636 34.55 174.856 34.97C175.083 35.39 175.39 35.7133 175.776 35.94C176.17 36.1667 176.61 36.28 177.096 36.28Z" fill="#81917D"/>
</svg>
